<svg width="159" height="63" viewBox="0 0 159 63" fill="none" xmlns="http://www.w3.org/2000/svg">
<path d="M149.241 42.5747C149.241 42.5747 149 42.6895 149 42.9762V48.0238C149 48.0238 149 48.2532 149.241 48.4253L153.759 50.949C153.759 50.949 154 51.0637 154.241 50.949L158.759 48.4253C158.759 48.4253 159 48.3105 159 48.0238V42.9762C159 42.9762 159 42.7468 158.759 42.5747L154.241 40.051C154.241 40.051 154 39.9363 153.759 40.051L149.241 42.5747Z" fill="#FF5108"/>
<path d="M9.44531 51H3.9375V25.0781H9.44531V51ZM3.60938 18.2109C3.60938 17.2266 3.875 16.4688 4.40625 15.9375C4.95312 15.4062 5.72656 15.1406 6.72656 15.1406C7.69531 15.1406 8.44531 15.4062 8.97656 15.9375C9.52344 16.4688 9.79688 17.2266 9.79688 18.2109C9.79688 19.1484 9.52344 19.8906 8.97656 20.4375C8.44531 20.9688 7.69531 21.2344 6.72656 21.2344C5.72656 21.2344 4.95312 20.9688 4.40625 20.4375C3.875 19.8906 3.60938 19.1484 3.60938 18.2109ZM40.6284 51H35.0972V35.0625C35.0972 33.0625 34.6909 31.5703 33.8784 30.5859C33.0816 29.6016 31.8081 29.1094 30.0581 29.1094C27.73 29.1094 26.0269 29.7969 24.9487 31.1719C23.8706 32.5469 23.3316 34.8516 23.3316 38.0859V51H17.8237V25.0781H22.1362L22.9097 28.4766H23.1909C23.9722 27.2422 25.0816 26.2891 26.5191 25.6172C27.9566 24.9453 29.5503 24.6094 31.3003 24.6094C37.5191 24.6094 40.6284 27.7734 40.6284 34.1016V51ZM57.5147 51.4688C54.2803 51.4688 51.7569 50.2969 49.9444 47.9531C48.1319 45.6094 47.2256 42.3203 47.2256 38.0859C47.2256 33.8359 48.1397 30.5312 49.9678 28.1719C51.8116 25.7969 54.3584 24.6094 57.6084 24.6094C61.0147 24.6094 63.6084 25.8672 65.3897 28.3828H65.6709C65.4053 26.5234 65.2725 25.0547 65.2725 23.9766V14.5312H70.8037V51H66.4912L65.5303 47.6016H65.2725C63.5069 50.1797 60.9209 51.4688 57.5147 51.4688ZM58.9912 47.0156C61.2569 47.0156 62.9053 46.3828 63.9366 45.1172C64.9678 43.8359 65.4991 41.7656 65.5303 38.9062V38.1328C65.5303 34.8672 64.9991 32.5469 63.9366 31.1719C62.8741 29.7969 61.21 29.1094 58.9444 29.1094C57.0069 29.1094 55.5147 29.8984 54.4678 31.4766C53.4209 33.0391 52.8975 35.2734 52.8975 38.1797C52.8975 41.0547 53.4053 43.25 54.4209 44.7656C55.4366 46.2656 56.96 47.0156 58.9912 47.0156ZM84.6666 51H79.1588V25.0781H84.6666V51ZM78.8306 18.2109C78.8306 17.2266 79.0963 16.4688 79.6275 15.9375C80.1744 15.4062 80.9478 15.1406 81.9478 15.1406C82.9166 15.1406 83.6666 15.4062 84.1978 15.9375C84.7447 16.4688 85.0181 17.2266 85.0181 18.2109C85.0181 19.1484 84.7447 19.8906 84.1978 20.4375C83.6666 20.9688 82.9166 21.2344 81.9478 21.2344C80.9478 21.2344 80.1744 20.9688 79.6275 20.4375C79.0963 19.8906 78.8306 19.1484 78.8306 18.2109ZM114.936 25.0781V28.1016L110.506 28.9219C110.912 29.4688 111.248 30.1406 111.514 30.9375C111.779 31.7344 111.912 32.5781 111.912 33.4688C111.912 36.1406 110.99 38.2422 109.147 39.7734C107.303 41.3047 104.764 42.0703 101.529 42.0703C100.701 42.0703 99.9512 42.0078 99.2794 41.8828C98.0919 42.6172 97.4981 43.4766 97.4981 44.4609C97.4981 45.0547 97.7716 45.5 98.3184 45.7969C98.8809 46.0938 99.9044 46.2422 101.389 46.2422H105.912C108.772 46.2422 110.943 46.8516 112.428 48.0703C113.912 49.2891 114.654 51.0469 114.654 53.3438C114.654 56.2812 113.443 58.5469 111.022 60.1406C108.6 61.7344 105.1 62.5312 100.522 62.5312C96.9903 62.5312 94.295 61.9062 92.4356 60.6562C90.5762 59.4062 89.6466 57.625 89.6466 55.3125C89.6466 53.7188 90.1466 52.375 91.1466 51.2812C92.1622 50.2031 93.5762 49.4531 95.3887 49.0312C94.6544 48.7188 94.045 48.2188 93.5606 47.5312C93.0919 46.8281 92.8575 46.0938 92.8575 45.3281C92.8575 44.3594 93.1309 43.5391 93.6778 42.8672C94.2247 42.1953 95.0372 41.5312 96.1153 40.875C94.7716 40.2969 93.6778 39.3594 92.8341 38.0625C92.0059 36.75 91.5919 35.2188 91.5919 33.4688C91.5919 30.6562 92.4747 28.4766 94.2403 26.9297C96.0216 25.3828 98.5528 24.6094 101.834 24.6094C102.568 24.6094 103.334 24.6641 104.131 24.7734C104.943 24.8672 105.553 24.9688 105.959 25.0781H114.936ZM94.5684 55.0312C94.5684 56.2188 95.0997 57.1328 96.1622 57.7734C97.2403 58.4141 98.7481 58.7344 100.686 58.7344C103.686 58.7344 105.92 58.3047 107.389 57.4453C108.857 56.5859 109.592 55.4453 109.592 54.0234C109.592 52.8984 109.186 52.0938 108.373 51.6094C107.576 51.1406 106.084 50.9062 103.897 50.9062H99.7247C98.1466 50.9062 96.8887 51.2734 95.9512 52.0078C95.0294 52.7578 94.5684 53.7656 94.5684 55.0312ZM96.9356 33.4688C96.9356 35.0938 97.3497 36.3438 98.1778 37.2188C99.0216 38.0938 100.225 38.5312 101.787 38.5312C104.975 38.5312 106.568 36.8281 106.568 33.4219C106.568 31.7344 106.17 30.4375 105.373 29.5312C104.592 28.6094 103.397 28.1484 101.787 28.1484C100.193 28.1484 98.9825 28.6016 98.1544 29.5078C97.3419 30.4141 96.9356 31.7344 96.9356 33.4688ZM143.236 37.9922C143.236 42.2266 142.15 45.5312 139.978 47.9062C137.806 50.2812 134.783 51.4688 130.908 51.4688C128.486 51.4688 126.345 50.9219 124.486 49.8281C122.627 48.7344 121.197 47.1641 120.197 45.1172C119.197 43.0703 118.697 40.6953 118.697 37.9922C118.697 33.7891 119.775 30.5078 121.931 28.1484C124.088 25.7891 127.127 24.6094 131.048 24.6094C134.798 24.6094 137.767 25.8203 139.955 28.2422C142.142 30.6484 143.236 33.8984 143.236 37.9922ZM124.369 37.9922C124.369 43.9766 126.58 46.9688 131.002 46.9688C135.377 46.9688 137.564 43.9766 137.564 37.9922C137.564 32.0703 135.361 29.1094 130.955 29.1094C128.642 29.1094 126.963 29.875 125.916 31.4062C124.884 32.9375 124.369 35.1328 124.369 37.9922Z" fill="white"/>
</svg>
